<svg xmlns="http://www.w3.org/2000/svg" xmlns:xlink="http://www.w3.org/1999/xlink" width="500" zoomAndPan="magnify" viewBox="0 0 375 374.999991" height="500" preserveAspectRatio="xMidYMid meet" version="1.0"><defs><g/><clipPath id="id1"><path d="M 77.292969 121 L 193 121 L 193 222.722656 L 77.292969 222.722656 Z M 77.292969 121 " clip-rule="nonzero"/></clipPath><clipPath id="id2"><path d="M 205 121 L 297.792969 121 L 297.792969 222.722656 L 205 222.722656 Z M 205 121 " clip-rule="nonzero"/></clipPath></defs><rect x="-37.5" width="450" fill="#ffffff" y="-37.499999" height="449.999989" fill-opacity="1"/><rect x="-37.5" width="450" fill="#ffffff" y="-37.499999" height="449.999989" fill-opacity="1"/><rect x="-37.5" width="450" fill="#ffffff" y="-37.499999" height="449.999989" fill-opacity="1"/><rect x="-37.5" width="450" fill="#ffffff" y="-37.499999" height="449.999989" fill-opacity="1"/><path fill="#39b54a" d="M 112.472656 124.011719 L 124.285156 126.800781 C 124.949219 126.957031 125.597656 127.164062 126.234375 127.417969 C 126.867188 127.671875 127.476562 127.976562 128.066406 128.324219 C 128.65625 128.671875 129.214844 129.0625 129.742188 129.492188 C 130.273438 129.925781 130.765625 130.398438 131.222656 130.902344 C 131.683594 131.410156 132.097656 131.949219 132.476562 132.523438 C 132.851562 133.09375 133.183594 133.6875 133.46875 134.308594 C 133.757812 134.929688 133.996094 135.570312 134.183594 136.226562 C 134.375 136.882812 134.511719 137.550781 134.601562 138.230469 L 136.347656 151.855469 C 137.382812 151.601562 138.371094 151.230469 139.320312 150.746094 L 140.960938 138.230469 C 141.050781 137.554688 141.1875 136.886719 141.375 136.230469 C 141.5625 135.574219 141.800781 134.933594 142.085938 134.316406 C 142.371094 133.695312 142.699219 133.097656 143.074219 132.527344 C 143.449219 131.957031 143.867188 131.417969 144.324219 130.910156 C 144.78125 130.402344 145.273438 129.933594 145.800781 129.5 C 146.328125 129.066406 146.882812 128.675781 147.472656 128.328125 C 148.058594 127.980469 148.667969 127.675781 149.300781 127.421875 C 149.933594 127.164062 150.578125 126.957031 151.242188 126.800781 L 163.054688 124.011719 C 163.234375 123.980469 163.324219 123.875 163.324219 123.691406 C 163.324219 123.507812 163.234375 123.402344 163.054688 123.371094 L 151.242188 120.582031 C 150.578125 120.425781 149.929688 120.21875 149.292969 119.964844 C 148.660156 119.710938 148.050781 119.410156 147.460938 119.0625 C 146.871094 118.710938 146.3125 118.324219 145.785156 117.890625 C 145.253906 117.457031 144.761719 116.988281 144.300781 116.480469 C 143.84375 115.972656 143.425781 115.433594 143.050781 114.863281 C 142.675781 114.289062 142.34375 113.695312 142.054688 113.074219 C 141.769531 112.453125 141.53125 111.8125 141.34375 111.15625 C 141.152344 110.5 141.015625 109.832031 140.925781 109.152344 L 138.085938 87.488281 C 138.085938 87.402344 138.054688 87.324219 137.992188 87.261719 C 137.929688 87.199219 137.851562 87.167969 137.765625 87.167969 C 137.675781 87.167969 137.597656 87.199219 137.535156 87.261719 C 137.472656 87.324219 137.441406 87.402344 137.441406 87.488281 L 134.601562 109.152344 C 134.511719 109.832031 134.375 110.5 134.183594 111.15625 C 133.996094 111.8125 133.757812 112.453125 133.46875 113.074219 C 133.183594 113.695312 132.851562 114.289062 132.476562 114.859375 C 132.097656 115.429688 131.683594 115.972656 131.222656 116.476562 C 130.765625 116.984375 130.273438 117.457031 129.742188 117.886719 C 129.214844 118.320312 128.65625 118.710938 128.066406 119.058594 C 127.476562 119.40625 126.867188 119.710938 126.234375 119.964844 C 125.597656 120.21875 124.949219 120.425781 124.285156 120.582031 L 112.472656 123.371094 C 112.292969 123.402344 112.203125 123.507812 112.203125 123.691406 C 112.203125 123.875 112.292969 123.980469 112.472656 124.011719 Z M 112.472656 124.011719 " fill-opacity="1" fill-rule="nonzero"/><path fill="#39b54a" d="M 199.597656 218.023438 L 203.863281 185.148438 C 203.996094 184.121094 204.207031 183.109375 204.496094 182.113281 C 204.785156 181.113281 205.144531 180.144531 205.578125 179.203125 C 206.015625 178.261719 206.515625 177.359375 207.089844 176.492188 C 207.660156 175.628906 208.292969 174.8125 208.988281 174.042969 C 209.679688 173.273438 210.429688 172.558594 211.230469 171.902344 C 212.035156 171.246094 212.882812 170.65625 213.773438 170.125 C 214.664062 169.597656 215.59375 169.140625 216.554688 168.753906 C 217.515625 168.367188 218.5 168.054688 219.507812 167.816406 L 237.425781 163.589844 C 237.683594 163.53125 237.808594 163.371094 237.808594 163.105469 C 237.808594 162.84375 237.683594 162.679688 237.425781 162.621094 L 219.507812 158.398438 C 218.5 158.160156 217.515625 157.847656 216.554688 157.460938 C 215.59375 157.074219 214.667969 156.617188 213.773438 156.085938 C 212.882812 155.558594 212.035156 154.96875 211.234375 154.3125 C 210.429688 153.65625 209.683594 152.945312 208.988281 152.175781 C 208.292969 151.40625 207.660156 150.589844 207.089844 149.722656 C 206.515625 148.859375 206.015625 147.957031 205.582031 147.015625 C 205.144531 146.074219 204.785156 145.105469 204.496094 144.109375 C 204.207031 143.113281 203.996094 142.101562 203.863281 141.074219 L 199.597656 108.191406 C 199.582031 108.066406 199.527344 107.964844 199.433594 107.882812 C 199.339844 107.796875 199.230469 107.757812 199.105469 107.757812 C 198.980469 107.757812 198.871094 107.796875 198.777344 107.882812 C 198.683594 107.964844 198.628906 108.066406 198.609375 108.191406 L 194.277344 141.074219 C 194.144531 142.101562 193.933594 143.113281 193.644531 144.109375 C 193.355469 145.105469 192.996094 146.074219 192.5625 147.015625 C 192.125 147.957031 191.625 148.863281 191.054688 149.726562 C 190.480469 150.59375 189.847656 151.410156 189.15625 152.179688 C 188.460938 152.949219 187.710938 153.664062 186.910156 154.320312 C 186.105469 154.976562 185.257812 155.566406 184.367188 156.09375 C 183.472656 156.621094 182.546875 157.082031 181.585938 157.46875 C 180.625 157.855469 179.640625 158.167969 178.632812 158.40625 L 160.714844 162.628906 C 160.457031 162.691406 160.328125 162.851562 160.328125 163.113281 C 160.328125 163.378906 160.457031 163.539062 160.714844 163.601562 L 178.632812 167.824219 C 179.640625 168.0625 180.625 168.375 181.585938 168.761719 C 182.546875 169.148438 183.472656 169.605469 184.363281 170.132812 C 185.253906 170.660156 186.101562 171.253906 186.90625 171.910156 C 187.707031 172.566406 188.457031 173.277344 189.152344 174.046875 C 189.84375 174.816406 190.476562 175.632812 191.050781 176.496094 C 191.621094 177.363281 192.125 178.265625 192.558594 179.207031 C 192.992188 180.148438 193.355469 181.117188 193.640625 182.113281 C 193.929688 183.109375 194.144531 184.121094 194.277344 185.148438 L 198.574219 218.011719 C 198.574219 218.152344 198.625 218.273438 198.722656 218.375 C 198.820312 218.476562 198.941406 218.527344 199.082031 218.527344 C 199.222656 218.53125 199.34375 218.480469 199.445312 218.382812 C 199.546875 218.28125 199.597656 218.164062 199.597656 218.023438 Z M 199.597656 218.023438 " fill-opacity="1" fill-rule="nonzero"/><g clip-path="url(#id1)"><path fill="#545953" d="M 191.578125 199.769531 C 191.542969 199.511719 191.464844 199.265625 191.34375 199.035156 C 191.21875 198.804688 191.0625 198.605469 190.863281 198.433594 C 190.667969 198.261719 190.449219 198.128906 190.203125 198.035156 C 189.960938 197.945312 189.707031 197.898438 189.445312 197.898438 L 147.511719 197.898438 C 147.507812 196.566406 147.394531 195.242188 147.175781 193.929688 C 146.953125 192.613281 146.625 191.328125 146.191406 190.066406 C 145.757812 188.808594 145.222656 187.589844 144.589844 186.417969 C 143.953125 185.246094 143.230469 184.132812 142.414062 183.082031 C 141.59375 182.03125 140.699219 181.050781 139.71875 180.148438 C 138.742188 179.242188 137.699219 178.421875 136.585938 177.691406 C 135.472656 176.960938 134.308594 176.324219 133.089844 175.78125 C 131.871094 175.242188 130.621094 174.804688 129.332031 174.472656 C 128.042969 174.140625 126.734375 173.914062 125.40625 173.796875 C 124.082031 173.675781 122.753906 173.667969 121.425781 173.769531 C 120.097656 173.871094 118.789062 174.078125 117.496094 174.394531 C 116.203125 174.714844 114.945312 175.132812 113.71875 175.660156 C 112.496094 176.183594 111.324219 176.804688 110.199219 177.523438 C 109.078125 178.238281 108.023438 179.042969 107.035156 179.9375 C 106.042969 180.828125 105.132812 181.796875 104.304688 182.835938 C 103.472656 183.878906 102.734375 184.980469 102.085938 186.144531 L 93.4375 186.144531 C 93.601562 184.667969 93.863281 182.925781 94.257812 180.898438 C 96.003906 171.714844 105.265625 164.222656 114.613281 164.222656 L 134.949219 164.222656 C 136.609375 164.222656 138.246094 164.035156 139.859375 163.65625 C 141.472656 163.28125 143.023438 162.726562 144.511719 161.992188 C 145.996094 161.261719 147.382812 160.367188 148.664062 159.316406 C 149.945312 158.265625 151.089844 157.082031 152.101562 155.765625 L 164.898438 139.148438 C 165.917969 137.820312 167.074219 136.625 168.367188 135.5625 C 169.664062 134.5 171.0625 133.597656 172.5625 132.855469 C 174.066406 132.117188 175.632812 131.554688 177.261719 131.175781 C 178.894531 130.792969 180.546875 130.605469 182.222656 130.605469 L 189.113281 130.605469 C 189.375 130.605469 189.628906 130.558594 189.875 130.46875 C 190.117188 130.375 190.339844 130.246094 190.535156 130.074219 C 190.730469 129.898438 190.890625 129.699219 191.011719 129.46875 C 191.136719 129.238281 191.214844 128.992188 191.246094 128.734375 L 191.882812 123.871094 C 191.925781 123.5625 191.898438 123.261719 191.808594 122.964844 C 191.71875 122.671875 191.574219 122.40625 191.367188 122.175781 C 191.164062 121.941406 190.921875 121.761719 190.640625 121.636719 C 190.355469 121.507812 190.0625 121.445312 189.753906 121.449219 L 182.203125 121.449219 C 179.832031 121.449219 177.492188 121.722656 175.183594 122.261719 C 172.875 122.800781 170.65625 123.59375 168.53125 124.644531 C 166.402344 125.695312 164.421875 126.96875 162.585938 128.472656 C 160.753906 129.976562 159.113281 131.671875 157.664062 133.550781 L 146.132812 148.539062 C 145.351562 149.558594 144.46875 150.472656 143.476562 151.285156 C 142.484375 152.097656 141.417969 152.785156 140.265625 153.351562 C 139.117188 153.917969 137.921875 154.347656 136.671875 154.640625 C 135.425781 154.929688 134.160156 155.074219 132.878906 155.074219 L 114.253906 155.074219 C 100.722656 155.074219 87.664062 165.980469 85.242188 179.316406 L 84.613281 182.8125 L 80.953125 182.8125 C 80.472656 182.816406 80.007812 182.90625 79.5625 183.089844 C 79.117188 183.277344 78.722656 183.539062 78.378906 183.875 C 78.035156 184.214844 77.769531 184.609375 77.582031 185.050781 C 77.394531 185.496094 77.296875 185.960938 77.292969 186.441406 L 77.292969 203.390625 C 77.292969 203.878906 77.386719 204.34375 77.570312 204.792969 C 77.757812 205.242188 78.019531 205.636719 78.363281 205.980469 C 78.707031 206.324219 79.105469 206.589844 79.550781 206.777344 C 80 206.960938 80.46875 207.054688 80.953125 207.054688 L 103.929688 207.054688 C 104.179688 208.140625 104.515625 209.195312 104.945312 210.222656 C 105.371094 211.25 105.882812 212.234375 106.476562 213.175781 C 107.070312 214.117188 107.738281 215.003906 108.480469 215.832031 C 109.21875 216.660156 110.027344 217.421875 110.898438 218.113281 C 111.765625 218.808594 112.6875 219.421875 113.660156 219.960938 C 114.636719 220.496094 115.648438 220.949219 116.695312 221.316406 C 117.746094 221.683594 118.820312 221.960938 119.914062 222.144531 C 121.011719 222.332031 122.113281 222.425781 123.226562 222.425781 C 124.339844 222.425781 125.441406 222.332031 126.539062 222.144531 C 127.636719 221.960938 128.707031 221.683594 129.757812 221.316406 C 130.808594 220.949219 131.820312 220.496094 132.792969 219.960938 C 133.765625 219.421875 134.6875 218.808594 135.558594 218.113281 C 136.425781 217.421875 137.234375 216.660156 137.976562 215.832031 C 138.71875 215.003906 139.386719 214.117188 139.976562 213.175781 C 140.570312 212.234375 141.082031 211.25 141.507812 210.222656 C 141.9375 209.195312 142.273438 208.140625 142.523438 207.054688 L 190.085938 207.054688 C 190.394531 207.054688 190.6875 206.992188 190.96875 206.863281 C 191.253906 206.734375 191.496094 206.554688 191.699219 206.324219 C 191.902344 206.089844 192.046875 205.824219 192.136719 205.527344 C 192.226562 205.230469 192.25 204.929688 192.207031 204.625 Z M 191.578125 199.769531 " fill-opacity="1" fill-rule="nonzero"/></g><path fill="#39b54a" d="M 249.132812 131.410156 L 258.953125 133.726562 C 260.0625 133.988281 261.113281 134.410156 262.097656 134.992188 C 263.082031 135.574219 263.957031 136.289062 264.722656 137.140625 C 265.488281 137.988281 266.113281 138.933594 266.589844 139.972656 C 267.070312 141.011719 267.382812 142.097656 267.53125 143.234375 L 268.894531 153.664062 C 269.550781 153.855469 270.226562 153.953125 270.910156 153.953125 L 271.390625 153.953125 L 272.789062 143.257812 C 272.9375 142.121094 273.25 141.03125 273.726562 139.992188 C 274.203125 138.949219 274.828125 138.003906 275.59375 137.152344 C 276.359375 136.300781 277.234375 135.582031 278.21875 135 C 279.203125 134.414062 280.253906 133.992188 281.367188 133.726562 L 291.195312 131.410156 C 291.34375 131.382812 291.417969 131.292969 291.417969 131.140625 C 291.417969 130.992188 291.34375 130.902344 291.195312 130.875 L 281.367188 128.558594 C 280.257812 128.296875 279.207031 127.871094 278.222656 127.289062 C 277.238281 126.707031 276.363281 125.992188 275.597656 125.144531 C 274.832031 124.292969 274.210938 123.351562 273.730469 122.3125 C 273.253906 121.273438 272.9375 120.1875 272.789062 119.050781 L 270.429688 101.035156 C 270.429688 100.960938 270.40625 100.898438 270.351562 100.84375 C 270.296875 100.792969 270.234375 100.765625 270.160156 100.765625 C 270.085938 100.765625 270.019531 100.792969 269.96875 100.84375 C 269.914062 100.898438 269.890625 100.960938 269.890625 101.035156 L 267.53125 119.050781 C 267.382812 120.1875 267.070312 121.273438 266.59375 122.3125 C 266.113281 123.351562 265.492188 124.296875 264.726562 125.148438 C 263.957031 125.996094 263.082031 126.710938 262.097656 127.292969 C 261.113281 127.875 260.066406 128.296875 258.953125 128.558594 L 249.132812 130.875 C 248.984375 130.902344 248.910156 130.992188 248.910156 131.140625 C 248.910156 131.292969 248.984375 131.382812 249.132812 131.410156 Z M 249.132812 131.410156 " fill-opacity="1" fill-rule="nonzero"/><g clip-path="url(#id2)"><path fill="#545953" d="M 289.285156 156.675781 L 270.9375 156.675781 C 269.394531 156.675781 267.925781 156.339844 266.535156 155.667969 C 265.144531 155 263.96875 154.058594 263.003906 152.851562 L 252.191406 139.296875 C 251.078125 137.90625 249.894531 136.582031 248.632812 135.324219 C 247.375 134.066406 246.050781 132.882812 244.65625 131.773438 C 243.265625 130.667969 241.816406 129.640625 240.308594 128.691406 C 238.804688 127.746094 237.25 126.886719 235.644531 126.117188 C 234.042969 125.34375 232.402344 124.664062 230.722656 124.078125 C 229.042969 123.492188 227.339844 123 225.605469 122.605469 C 223.871094 122.207031 222.121094 121.910156 220.351562 121.710938 C 218.585938 121.511719 216.8125 121.414062 215.035156 121.414062 L 208.335938 121.414062 C 208.027344 121.414062 207.730469 121.476562 207.449219 121.605469 C 207.171875 121.730469 206.929688 121.910156 206.722656 122.144531 C 206.519531 122.375 206.375 122.636719 206.285156 122.933594 C 206.195312 123.230469 206.171875 123.53125 206.210938 123.835938 L 206.839844 128.699219 C 206.875 128.957031 206.953125 129.203125 207.074219 129.433594 C 207.199219 129.660156 207.359375 129.863281 207.554688 130.035156 C 207.75 130.207031 207.96875 130.339844 208.214844 130.429688 C 208.457031 130.523438 208.710938 130.570312 208.972656 130.570312 L 214.992188 130.570312 C 217.878906 130.558594 220.726562 130.871094 223.542969 131.507812 C 226.355469 132.144531 229.066406 133.089844 231.667969 134.339844 C 234.265625 135.589844 236.695312 137.117188 238.949219 138.921875 C 241.207031 140.722656 243.230469 142.753906 245.027344 145.015625 L 255.839844 158.570312 C 256.742188 159.707031 257.761719 160.730469 258.894531 161.632812 C 260.027344 162.539062 261.246094 163.308594 262.554688 163.9375 C 263.859375 164.566406 265.21875 165.039062 266.632812 165.363281 C 268.046875 165.683594 269.480469 165.84375 270.929688 165.839844 L 285.210938 165.839844 C 285.675781 165.839844 286.121094 165.925781 286.550781 166.105469 C 286.976562 166.28125 287.355469 166.535156 287.683594 166.863281 C 288.011719 167.191406 288.261719 167.570312 288.441406 168 C 288.617188 168.425781 288.707031 168.875 288.707031 169.335938 L 288.707031 186.152344 L 277.085938 186.152344 C 276.4375 184.992188 275.695312 183.894531 274.867188 182.855469 C 274.035156 181.820312 273.125 180.855469 272.136719 179.96875 C 271.148438 179.078125 270.09375 178.277344 268.972656 177.5625 C 267.851562 176.847656 266.679688 176.230469 265.457031 175.707031 C 264.234375 175.183594 262.976562 174.765625 261.6875 174.453125 C 260.394531 174.136719 259.085938 173.929688 257.761719 173.828125 C 256.4375 173.730469 255.113281 173.738281 253.789062 173.859375 C 252.464844 173.976562 251.160156 174.203125 249.875 174.535156 C 248.585938 174.867188 247.335938 175.304688 246.121094 175.84375 C 244.90625 176.382812 243.746094 177.015625 242.632812 177.746094 C 241.523438 178.476562 240.480469 179.292969 239.503906 180.195312 C 238.527344 181.097656 237.628906 182.074219 236.8125 183.125 C 236 184.175781 235.273438 185.285156 234.640625 186.453125 C 234.003906 187.621094 233.472656 188.835938 233.035156 190.09375 C 232.601562 191.351562 232.273438 192.632812 232.050781 193.945312 C 231.824219 195.257812 231.710938 196.578125 231.703125 197.90625 L 208.703125 197.90625 C 208.441406 197.90625 208.1875 197.953125 207.941406 198.042969 C 207.699219 198.136719 207.476562 198.265625 207.28125 198.441406 C 207.085938 198.613281 206.925781 198.8125 206.804688 199.042969 C 206.679688 199.273438 206.601562 199.519531 206.570312 199.777344 L 205.933594 204.632812 C 205.890625 204.941406 205.917969 205.242188 206.007812 205.539062 C 206.097656 205.835938 206.242188 206.097656 206.449219 206.332031 C 206.652344 206.566406 206.894531 206.746094 207.175781 206.871094 C 207.457031 207 207.753906 207.0625 208.0625 207.0625 L 236.613281 207.0625 C 236.863281 208.148438 237.203125 209.203125 237.628906 210.230469 C 238.058594 211.257812 238.566406 212.242188 239.160156 213.183594 C 239.753906 214.125 240.421875 215.011719 241.164062 215.839844 C 241.90625 216.667969 242.710938 217.429688 243.582031 218.121094 C 244.449219 218.816406 245.371094 219.429688 246.347656 219.96875 C 247.320312 220.503906 248.332031 220.957031 249.382812 221.324219 C 250.429688 221.691406 251.503906 221.96875 252.597656 222.15625 C 253.695312 222.339844 254.800781 222.433594 255.910156 222.433594 C 257.023438 222.433594 258.128906 222.339844 259.222656 222.15625 C 260.320312 221.96875 261.390625 221.691406 262.441406 221.324219 C 263.492188 220.957031 264.503906 220.503906 265.476562 219.96875 C 266.449219 219.429688 267.371094 218.816406 268.242188 218.121094 C 269.113281 217.429688 269.917969 216.667969 270.660156 215.839844 C 271.402344 215.011719 272.070312 214.125 272.664062 213.183594 C 273.253906 212.242188 273.765625 211.257812 274.195312 210.230469 C 274.621094 209.203125 274.960938 208.148438 275.210938 207.0625 L 293.25 207.0625 C 293.550781 207.0625 293.847656 207.035156 294.140625 206.976562 C 294.4375 206.917969 294.722656 206.832031 295 206.714844 C 295.277344 206.601562 295.542969 206.457031 295.789062 206.292969 C 296.039062 206.125 296.269531 205.933594 296.484375 205.722656 C 296.695312 205.507812 296.886719 205.277344 297.050781 205.027344 C 297.21875 204.777344 297.359375 204.511719 297.472656 204.234375 C 297.585938 203.957031 297.675781 203.671875 297.730469 203.375 C 297.789062 203.082031 297.820312 202.78125 297.820312 202.480469 L 297.820312 165.226562 C 297.820312 164.664062 297.765625 164.109375 297.65625 163.558594 C 297.546875 163.007812 297.386719 162.472656 297.171875 161.953125 C 296.957031 161.4375 296.695312 160.941406 296.382812 160.476562 C 296.070312 160.007812 295.71875 159.578125 295.320312 159.179688 C 294.925781 158.78125 294.496094 158.429688 294.027344 158.117188 C 293.5625 157.804688 293.070312 157.539062 292.550781 157.324219 C 292.035156 157.109375 291.5 156.949219 290.949219 156.839844 C 290.398438 156.730469 289.84375 156.675781 289.285156 156.675781 Z M 289.285156 156.675781 " fill-opacity="1" fill-rule="nonzero"/></g><g fill="#545953" fill-opacity="1"><g transform="translate(82.808759, 263.271155)"><g><path d="M 11.390625 -10.953125 L 11.390625 0 L 3.25 0 L 3.25 -30.109375 L 13.125 -30.109375 C 21.3125 -30.109375 25.40625 -27.144531 25.40625 -21.21875 C 25.40625 -17.726562 23.703125 -15.03125 20.296875 -13.125 L 29.0625 0 L 19.84375 0 L 13.453125 -10.953125 Z M 11.390625 -17.078125 L 12.921875 -17.078125 C 15.765625 -17.078125 17.1875 -18.332031 17.1875 -20.84375 C 17.1875 -22.914062 15.789062 -23.953125 13 -23.953125 L 11.390625 -23.953125 Z M 11.390625 -17.078125 "/></g></g></g><g fill="#545953" fill-opacity="1"><g transform="translate(111.353911, 263.271155)"><g><path d="M 18 0 L 16.453125 -3.09375 L 16.296875 -3.09375 C 15.210938 -1.75 14.101562 -0.828125 12.96875 -0.328125 C 11.84375 0.160156 10.390625 0.40625 8.609375 0.40625 C 6.410156 0.40625 4.679688 -0.25 3.421875 -1.5625 C 2.160156 -2.882812 1.53125 -4.738281 1.53125 -7.125 C 1.53125 -9.613281 2.394531 -11.460938 4.125 -12.671875 C 5.851562 -13.890625 8.359375 -14.578125 11.640625 -14.734375 L 15.53125 -14.859375 L 15.53125 -15.1875 C 15.53125 -17.101562 14.582031 -18.0625 12.6875 -18.0625 C 10.988281 -18.0625 8.828125 -17.484375 6.203125 -16.328125 L 3.875 -21.65625 C 6.59375 -23.050781 10.023438 -23.75 14.171875 -23.75 C 17.160156 -23.75 19.476562 -23.003906 21.125 -21.515625 C 22.769531 -20.035156 23.59375 -17.96875 23.59375 -15.3125 L 23.59375 0 Z M 12.03125 -5.28125 C 13.007812 -5.28125 13.84375 -5.585938 14.53125 -6.203125 C 15.226562 -6.816406 15.578125 -7.617188 15.578125 -8.609375 L 15.578125 -10.421875 L 13.71875 -10.34375 C 11.070312 -10.25 9.75 -9.273438 9.75 -7.421875 C 9.75 -5.992188 10.507812 -5.28125 12.03125 -5.28125 Z M 12.03125 -5.28125 "/></g></g></g><g fill="#545953" fill-opacity="1"><g transform="translate(137.633575, 263.271155)"><g><path d="M 17.515625 0 L 17.515625 -12.734375 C 17.515625 -14.285156 17.289062 -15.453125 16.84375 -16.234375 C 16.394531 -17.023438 15.675781 -17.421875 14.6875 -17.421875 C 13.320312 -17.421875 12.335938 -16.878906 11.734375 -15.796875 C 11.128906 -14.710938 10.828125 -12.851562 10.828125 -10.21875 L 10.828125 0 L 2.78125 0 L 2.78125 -23.34375 L 8.859375 -23.34375 L 9.859375 -20.453125 L 10.34375 -20.453125 C 11.03125 -21.554688 11.976562 -22.378906 13.1875 -22.921875 C 14.40625 -23.472656 15.804688 -23.75 17.390625 -23.75 C 19.972656 -23.75 21.976562 -23 23.40625 -21.5 C 24.84375 -20.007812 25.5625 -17.90625 25.5625 -15.1875 L 25.5625 0 Z M 17.515625 0 "/></g></g></g><g fill="#545953" fill-opacity="1"><g transform="translate(165.890393, 263.271155)"><g><path d="M 10.03125 0.40625 C 8.375 0.40625 6.921875 -0.0664062 5.671875 -1.015625 C 4.429688 -1.960938 3.46875 -3.351562 2.78125 -5.1875 C 2.101562 -7.03125 1.765625 -9.179688 1.765625 -11.640625 C 1.765625 -15.429688 2.523438 -18.394531 4.046875 -20.53125 C 5.578125 -22.675781 7.675781 -23.75 10.34375 -23.75 C 11.644531 -23.75 12.785156 -23.488281 13.765625 -22.96875 C 14.753906 -22.445312 15.648438 -21.566406 16.453125 -20.328125 L 16.625 -20.328125 C 16.363281 -22.160156 16.234375 -23.988281 16.234375 -25.8125 L 16.234375 -32.046875 L 24.34375 -32.046875 L 24.34375 0 L 18.265625 0 L 16.546875 -2.953125 L 16.234375 -2.953125 C 14.847656 -0.710938 12.78125 0.40625 10.03125 0.40625 Z M 13.328125 -5.953125 C 14.617188 -5.953125 15.523438 -6.359375 16.046875 -7.171875 C 16.578125 -7.984375 16.863281 -9.234375 16.90625 -10.921875 L 16.90625 -11.5625 C 16.90625 -13.613281 16.609375 -15.078125 16.015625 -15.953125 C 15.429688 -16.828125 14.507812 -17.265625 13.25 -17.265625 C 12.1875 -17.265625 11.363281 -16.765625 10.78125 -15.765625 C 10.195312 -14.773438 9.90625 -13.359375 9.90625 -11.515625 C 9.90625 -9.703125 10.203125 -8.320312 10.796875 -7.375 C 11.390625 -6.425781 12.234375 -5.953125 13.328125 -5.953125 Z M 13.328125 -5.953125 "/></g></g></g><g fill="#545953" fill-opacity="1"><g transform="translate(193.014466, 263.271155)"><g><path d="M -0.046875 -23.34375 L 8.453125 -23.34375 L 12.40625 -9.953125 C 12.59375 -9.253906 12.722656 -8.410156 12.796875 -7.421875 L 12.953125 -7.421875 C 13.066406 -8.367188 13.234375 -9.195312 13.453125 -9.90625 L 17.515625 -23.34375 L 25.734375 -23.34375 L 16.5 1.484375 C 15.320312 4.640625 13.867188 6.867188 12.140625 8.171875 C 10.421875 9.484375 8.171875 10.140625 5.390625 10.140625 C 4.328125 10.140625 3.226562 10.019531 2.09375 9.78125 L 2.09375 3.453125 C 2.820312 3.617188 3.65625 3.703125 4.59375 3.703125 C 5.3125 3.703125 5.9375 3.566406 6.46875 3.296875 C 7 3.023438 7.460938 2.632812 7.859375 2.125 C 8.265625 1.625 8.691406 0.804688 9.140625 -0.328125 Z M -0.046875 -23.34375 "/></g></g></g><g fill="#545953" fill-opacity="1"><g transform="translate(218.738056, 263.271155)"><g><path d="M 16.671875 -23.875 C 14.734375 -23.875 13.21875 -23.078125 12.125 -21.484375 C 11.039062 -19.898438 10.5 -17.71875 10.5 -14.9375 C 10.5 -9.132812 12.707031 -6.234375 17.125 -6.234375 C 18.445312 -6.234375 19.734375 -6.421875 20.984375 -6.796875 C 22.234375 -7.171875 23.492188 -7.617188 24.765625 -8.140625 L 24.765625 -1.25 C 22.242188 -0.144531 19.398438 0.40625 16.234375 0.40625 C 11.679688 0.40625 8.191406 -0.910156 5.765625 -3.546875 C 3.347656 -6.179688 2.140625 -9.988281 2.140625 -14.96875 C 2.140625 -18.09375 2.726562 -20.832031 3.90625 -23.1875 C 5.082031 -25.550781 6.769531 -27.367188 8.96875 -28.640625 C 11.175781 -29.910156 13.769531 -30.546875 16.75 -30.546875 C 20 -30.546875 23.109375 -29.835938 26.078125 -28.421875 L 23.59375 -22.015625 C 22.476562 -22.535156 21.363281 -22.972656 20.25 -23.328125 C 19.132812 -23.691406 17.941406 -23.875 16.671875 -23.875 Z M 16.671875 -23.875 "/></g></g></g><g fill="#545953" fill-opacity="1"><g transform="translate(246.109274, 263.271155)"><g><path d="M 18 0 L 16.453125 -3.09375 L 16.296875 -3.09375 C 15.210938 -1.75 14.101562 -0.828125 12.96875 -0.328125 C 11.84375 0.160156 10.390625 0.40625 8.609375 0.40625 C 6.410156 0.40625 4.679688 -0.25 3.421875 -1.5625 C 2.160156 -2.882812 1.53125 -4.738281 1.53125 -7.125 C 1.53125 -9.613281 2.394531 -11.460938 4.125 -12.671875 C 5.851562 -13.890625 8.359375 -14.578125 11.640625 -14.734375 L 15.53125 -14.859375 L 15.53125 -15.1875 C 15.53125 -17.101562 14.582031 -18.0625 12.6875 -18.0625 C 10.988281 -18.0625 8.828125 -17.484375 6.203125 -16.328125 L 3.875 -21.65625 C 6.59375 -23.050781 10.023438 -23.75 14.171875 -23.75 C 17.160156 -23.75 19.476562 -23.003906 21.125 -21.515625 C 22.769531 -20.035156 23.59375 -17.96875 23.59375 -15.3125 L 23.59375 0 Z M 12.03125 -5.28125 C 13.007812 -5.28125 13.84375 -5.585938 14.53125 -6.203125 C 15.226562 -6.816406 15.578125 -7.617188 15.578125 -8.609375 L 15.578125 -10.421875 L 13.71875 -10.34375 C 11.070312 -10.25 9.75 -9.273438 9.75 -7.421875 C 9.75 -5.992188 10.507812 -5.28125 12.03125 -5.28125 Z M 12.03125 -5.28125 "/></g></g></g><g fill="#545953" fill-opacity="1"><g transform="translate(272.388938, 263.271155)"><g><path d="M 16.875 -23.75 C 17.570312 -23.75 18.238281 -23.695312 18.875 -23.59375 L 19.328125 -23.5 L 18.59375 -15.90625 C 17.9375 -16.070312 17.023438 -16.15625 15.859375 -16.15625 C 14.097656 -16.15625 12.816406 -15.75 12.015625 -14.9375 C 11.222656 -14.132812 10.828125 -12.976562 10.828125 -11.46875 L 10.828125 0 L 2.78125 0 L 2.78125 -23.34375 L 8.78125 -23.34375 L 10.03125 -19.609375 L 10.421875 -19.609375 C 11.097656 -20.847656 12.035156 -21.847656 13.234375 -22.609375 C 14.429688 -23.367188 15.644531 -23.75 16.875 -23.75 Z M 16.875 -23.75 "/></g></g></g></svg>